<svg xmlns="http://www.w3.org/2000/svg" width="800" height="150" viewBox="0 0 800 150" font-family="-apple-system,BlinkMacSystemFont,'Segoe UI',Helvetica,Arial,sans-serif">
  <rect x="0.5" y="0.5" width="799" height="149" rx="8" fill="#ffffff" stroke="#d0d7de"/>
  <text x="25" y="42" font-size="18" font-weight="600" fill="#1f2328">Top languages</text>
  <clipPath id="bar"><rect x="25" y="62" width="750" height="10" rx="5"/></clipPath>
  <rect x="25" y="62" width="750" height="10" rx="5" fill="#eff2f5"/>
  <g clip-path="url(#bar)">
  <rect x="25.00" y="62" width="425.56" height="10" fill="#3572A5"/>
  <rect x="450.56" y="62" width="172.02" height="10" fill="#f1e05a"/>
  <rect x="622.58" y="62" width="122.57" height="10" fill="#3178c6"/>
  <rect x="745.15" y="62" width="25.91" height="10" fill="#ff5a03"/>
  <rect x="771.06" y="62" width="2.77" height="10" fill="#89e051"/>
  <rect x="773.83" y="62" width="1.17" height="10" fill="#336790"/>
  </g>
  <circle cx="30" cy="100" r="5" fill="#3572A5"/>
  <text x="41" y="104" font-size="13" fill="#1f2328">Python <tspan fill="#59636e">56.7%</tspan></text>
  <circle cx="280" cy="100" r="5" fill="#f1e05a"/>
  <text x="291" y="104" font-size="13" fill="#1f2328">JavaScript <tspan fill="#59636e">22.9%</tspan></text>
  <circle cx="530" cy="100" r="5" fill="#3178c6"/>
  <text x="541" y="104" font-size="13" fill="#1f2328">TypeScript <tspan fill="#59636e">16.3%</tspan></text>
  <circle cx="30" cy="126" r="5" fill="#ff5a03"/>
  <text x="41" y="130" font-size="13" fill="#1f2328">Astro <tspan fill="#59636e">3.5%</tspan></text>
  <circle cx="280" cy="126" r="5" fill="#89e051"/>
  <text x="291" y="130" font-size="13" fill="#1f2328">Shell <tspan fill="#59636e">0.4%</tspan></text>
  <circle cx="530" cy="126" r="5" fill="#336790"/>
  <text x="541" y="130" font-size="13" fill="#1f2328">PLpgSQL <tspan fill="#59636e">0.2%</tspan></text>
</svg>
