<svg xmlns="http://www.w3.org/2000/svg" width="800" height="150" viewBox="0 0 800 150" font-family="-apple-system,BlinkMacSystemFont,'Segoe UI',Helvetica,Arial,sans-serif">
  <rect x="0.5" y="0.5" width="799" height="149" rx="8" fill="#0d1117" stroke="#30363d"/>
  <text x="25" y="42" font-size="18" font-weight="600" fill="#e6edf3">Top languages</text>
  <clipPath id="bar"><rect x="25" y="62" width="750" height="10" rx="5"/></clipPath>
  <rect x="25" y="62" width="750" height="10" rx="5" fill="#21262d"/>
  <g clip-path="url(#bar)">
  <rect x="25.00" y="62" width="556.19" height="10" fill="#3572A5"/>
  <rect x="581.19" y="62" width="101.77" height="10" fill="#f1e05a"/>
  <rect x="682.96" y="62" width="74.39" height="10" fill="#3178c6"/>
  <rect x="757.35" y="62" width="15.32" height="10" fill="#ff5a03"/>
  <rect x="772.67" y="62" width="1.64" height="10" fill="#89e051"/>
  <rect x="774.31" y="62" width="0.69" height="10" fill="#336790"/>
  </g>
  <circle cx="30" cy="100" r="5" fill="#3572A5"/>
  <text x="41" y="104" font-size="13" fill="#e6edf3">Python <tspan fill="#9198a1">74.2%</tspan></text>
  <circle cx="280" cy="100" r="5" fill="#f1e05a"/>
  <text x="291" y="104" font-size="13" fill="#e6edf3">JavaScript <tspan fill="#9198a1">13.6%</tspan></text>
  <circle cx="530" cy="100" r="5" fill="#3178c6"/>
  <text x="541" y="104" font-size="13" fill="#e6edf3">TypeScript <tspan fill="#9198a1">9.9%</tspan></text>
  <circle cx="30" cy="126" r="5" fill="#ff5a03"/>
  <text x="41" y="130" font-size="13" fill="#e6edf3">Astro <tspan fill="#9198a1">2.0%</tspan></text>
  <circle cx="280" cy="126" r="5" fill="#89e051"/>
  <text x="291" y="130" font-size="13" fill="#e6edf3">Shell <tspan fill="#9198a1">0.2%</tspan></text>
  <circle cx="530" cy="126" r="5" fill="#336790"/>
  <text x="541" y="130" font-size="13" fill="#e6edf3">PLpgSQL <tspan fill="#9198a1">0.1%</tspan></text>
</svg>
